<svg xmlns="http://www.w3.org/2000/svg" width="265.297" height="265.296"><defs><linearGradient id="b" x1=".5" x2=".5" y2="1" gradientUnits="objectBoundingBox"><stop offset="0" stop-color="#2c2e2c"/><stop offset="1" stop-color="#1c1c1c"/></linearGradient><linearGradient id="c" x1=".674" y1=".073" x2=".324" y2=".936" gradientUnits="objectBoundingBox"><stop offset="0" stop-color="#fff"/><stop offset="1" stop-color="#b2b2b2"/></linearGradient><linearGradient id="d" x1=".674" y1=".073" x2=".324" y2=".936" gradientUnits="objectBoundingBox"><stop offset="0" stop-color="#eff5f0"/><stop offset="1" stop-color="#a8afa9"/></linearGradient><clipPath id="a"><circle data-name="Ellipse 1706" cx="132.648" cy="132.648" fill="#52a5f7" r="132.648"/></clipPath></defs><g data-name="Group 3665"><path data-name="Path 5547" d="M132.649 0c73.26 0 132.652 59.206 132.652 132.241v.814c0 73.035-59.389 132.241-132.648 132.241S.001 206.09.001 133.055v-.814C.001 59.206 59.39 0 132.649 0Z" fill="#f5f7fa"/><g data-name="Group 2436"><circle data-name="Ellipse 1723" cx="132.648" cy="132.648" fill="none" r="132.648"/><circle data-name="Ellipse 1705" cx="132.648" cy="132.648" fill="none" r="132.648"/><g data-name="Mask Group 41" clip-path="url(#a)"><g data-name="Group 2158" transform="translate(-73.507 40.791)"><path data-name="Path 4741" d="m280.918 223.703-54.053-1.24 11.4 50.7h67.938Z" fill="#fff"/><path data-name="Path 4738" d="M18122.629 1275.4a67.817 67.817 0 0 0-2.334 7.347c-.545 2.634-3.844 4.345-5.148 4.775s-3.217.841-7.592 2.3-9.9 3.538-9.9 3.538l-34.014 21.154a2.257 2.257 0 0 0-1.2-.5c-.594 0-.8.474-1.947.773s-4.062.545-4.275.893.535.95.9 4.014.279 5.993.41 7.647a15.651 15.651 0 0 1 .188 3.289c-.133.809-1.693 2.2-1.555 6.036s2.092 8.7 2.105 9.317c.008.295-.281.625-.533 1.412-.258.833-.26 1.83-.494 2.059a16.08 16.08 0 0 0-3.635 5.913c-1.088 3.331-.693 6.34-.943 8.255s-1.189 3.177-1.674 6.312-.363 5.282-.7 6.263-1.254 1.981-1.205 4.182 1.369 4.314 1.391 4.62-1.842 4.348-1.236 6.1 1.48 3.18 2.016 4.878a21.409 21.409 0 0 0 1.986 5.132 16.655 16.655 0 0 0 2.061 2.733h26.021a14.854 14.854 0 0 0 7.139-1.987c3.516-2.074 4.277-3.421 6.436-6.191s1.73-4.079 2.322-5.249a6 6 0 0 1 1.539-1.878l4.42 3.761s.461 4.512.857 7.273a25.715 25.715 0 0 0 .727 3.772 86.169 86.169 0 0 1 3.08 20.235c.127 10.163-1.627 13.321-2.578 20.416a75.521 75.521 0 0 1-1.281 8.105l20.639-.073a140.685 140.685 0 0 0-3.842-22.8c-3.107-12.05-4.932-25.278-4.932-25.278l47.422 2.484s1.443 5.444 6.8 16.843 14.639 28.753 14.639 28.753h78.547s-6.893-9.374-11.6-15.122-6.473-8.795-7.889-9.569-1.766-1.445-3.631-3.585a46.862 46.862 0 0 1-3.84-4.972c-.732-1.117-.574-2.121-1.738-3.628s-2.943-2.84-3.855-4.22-7.885-14.7-8.576-16.225a25.842 25.842 0 0 1-1.691-6.374c-.051-1.277 2.338-10.442 3.813-19.215s1.881-13.609 1.672-18.284-.848-12.939-.535-14.515 1.922-3 1.275-5.317-3.047-3.133-3.4-3.681.66-1.269 0-2.67-.119-2.341.654-4.319 1.705-3.156 2.045-4.261.17-5.953.389-7.347 1.287-2.186 1.287-4.858a10.823 10.823 0 0 0-1.676-5.579 19.452 19.452 0 0 0-2.7-3.737c-1.672-2.08-2.869-3.479-7.885-6.162s-10.336-3.6-16.553-5.554-5.3-5.869-15.553-6.869-9.91-6.891-25.066-7.031-35.574 6.466-35.574 6.466Z" transform="translate(-17884.127 -1179.057)" fill="url(#b)"/><path data-name="Path 4739" d="m273.239 118.339-22.043 14.357-13.672-10.641s-3.3 1.435-3.479 4.611.574 3.877.465 12.994-.43 13.554-.912 23.474-.887 9.282-1.52 16.236a80.566 80.566 0 0 0-.473 13.8c.227 4.815 1.385 5.454 1.385 5.454a8.505 8.505 0 0 1 2.494-.418c1.307 0 1.729.49 4.422.612s4.273.446 7.543.595a41.988 41.988 0 0 1 5.42.265c2.25.328 2.912 1.394 4.342.665a13.266 13.266 0 0 1 6.854-1.719 10.892 10.892 0 0 1 4.664 1.719 5.673 5.673 0 0 0 1.641.565s-.736-7.674-.977-15.664-.266-8.845-.412-17.263-.213-9.805 0-18.21a120.18 120.18 0 0 1 1.176-16.67c.879-6.795 1.371-8.28 2.242-11.049a13.978 13.978 0 0 0 .84-3.713Z" fill="#fff"/><path data-name="Path 4732" d="M211.726 55.967s-1.508 1.466-2.662 2.728a17.63 17.63 0 0 0-1.928 2.32 3.091 3.091 0 0 0-.357 1.068 5.543 5.543 0 0 0-1.516.485 8.2 8.2 0 0 0-1.184.838 8.683 8.683 0 0 0-1.508.439 10.145 10.145 0 0 0-2.574 1.727 32.871 32.871 0 0 0-3.025 2.672c-.527.534-.867 1.375-1.135 1.4a9.086 9.086 0 0 0-3.012 1.647 11.473 11.473 0 0 0-2.777 2.932c-.447.71-1.691 1.447-2.131 2.46a20.615 20.615 0 0 0-.617 3.268 15.639 15.639 0 0 0-.432 2.878c-.043.857-.166 9.769-.35 11.1s-1.982 11.878-2.092 13.4.17 3 0 4.13-.572 3.813-.639 4.848a28.559 28.559 0 0 1-.715 5.458c-.594 2.492-1.156 3.551-1.309 4.695s.012 1.6-.24 4.637-.666 5.17-.666 5.17a71.463 71.463 0 0 1 11.178.375 55.916 55.916 0 0 1 10.109 2.378 10.248 10.248 0 0 1-.467-2.753 24.018 24.018 0 0 1 1.023-6.452 35.178 35.178 0 0 1 4.369-9.28c1.189-1.795 4.434-4.214 6.209-6.2s1.459-2.858 2.73-4.745 2.426-3.174 3.154-4.134 1.58-2.678 2.611-4.227 2.641-3.449 4.338-6.333a29.543 29.543 0 0 0 2.443-5.2s-5.895.6-8.883 2.178-2.721 3.883-3.062 4.151a10.377 10.377 0 0 0-1.047.8c-.357.352-.406.651-.693.622a5.136 5.136 0 0 0-2.453 0c-.9.355 6.094-11.744 6.094-11.744Z" fill="#dedede"/><path data-name="Path 4730" d="M218.963 92.178s-17.574 15.211-17.785 15.316-2.086 1.192-3.834-1.61-3.262-6.826-5.463-12.13-2.857-6.408-3.357-9.085.326-4.378 2.627-6.189 21.707-17.423 21.707-17.423Z" fill="#313131"/><path data-name="Path 4731" d="m211.074 65.623-17.49 13.939a8.742 8.742 0 0 1 .783 1.15c.281.52 8.268 21.367 8.469 21.951a2.439 2.439 0 0 1 0 1.24l17.236-14.712Z" fill="#fff"/><path data-name="Path 4725" d="M226.772 93.393a16.509 16.509 0 0 0 3.715 0c2.426-.213 3.943-.288 5.674 1.263s.984 4.225 1.566 5.99 1.246 4.012 1.1 9.762a87.21 87.21 0 0 1-1.256 11.749 17.551 17.551 0 0 0 7.037 8.48c5.139 3.017 7.516 3.473 9.969 1.753s7.811-4.633 9.143-5.531c2.652-1.793 8.645-5.811 9.094-6.409s1.627-6.665 1.572-12.59.279-6.286 0-14.393 4.74-25.214 4.74-25.214l-18.754-1.943Z" fill="#dedede"/><path data-name="Path 4715" d="M227.869 14.003a29.63 29.63 0 0 0-7.016 6.374c-3.8 4.534-5.482 10.677-6.141 13.393s-2.014 4.276-2.338 5.926a8.543 8.543 0 0 0 .172 4.832c.592 1.243 1.682 1.354 1.908 1.9s-.031 1.755-.561 3.669-2.4 5.517-3.914 9.873 2.539 9.207 3.471 12.338 1.039 3.585 1.914 6.215 1.514 3.635 1.615 4.755-1.713 6.983 3.1 9.715 10.281-1.093 14.49-2.332 7.291-1.663 13.742-3.773 9.678-2.452 14.143-7.168a34.351 34.351 0 0 0 6.611-10.759s-1.082 2.3-.17 3.409 2.682 1.659 4.877 1.516 2.822-1.275 4.7-2.646 2.3-2.039 3.752-4.53a16.986 16.986 0 0 0 2.465-7.378c.236-2.68.943-5.994-.781-8.17s-6.275-.483-6.275-.483l-22.1-39.54-21.057-2.905Z" fill="#e8e8e8"/><path data-name="Path 4724" d="M218.258 70.728a10.188 10.188 0 0 0 .7 5.518c.787 1.752 5.271 2.356 5.271 2.356l7.973-2.623 3.891-2.274.922-1.08s.16-.171-.715-.682-2.809-1.389-2.809-1.389l-11.637-.671s-3.261-.155-3.596.845Z" fill="#969696"/><path data-name="Path 4716" d="M231.321 46.96c.863-.872.465-3.683 3.9-3.408s9.656 2.5 9.656 2.5" fill="none" stroke="#1a1a1a" stroke-linecap="round" stroke-width=".6"/><path data-name="Path 4717" d="M214.116 47.65a1.123 1.123 0 0 1 1.258-1.1 13.34 13.34 0 0 1 3.352 1.1" fill="none" stroke="#1a1a1a" stroke-linecap="round" stroke-width=".6"/><ellipse data-name="Ellipse 1612" cx="1.819" cy="2.402" rx="1.819" ry="2.402" transform="translate(232.725 43.379)" fill="#1a1a1a"/><ellipse data-name="Ellipse 1613" cx=".779" cy="1.364" rx=".779" ry="1.364" transform="translate(214.409 46.625)" fill="#1a1a1a"/><path data-name="Path 4718" d="M229.576 39.355c.369.223 3.572-2.669 4.777-3.075s1.744-1.189 5.209 0 7.393 4.971 7.871 5.054-2.02-3.143-5.262-5.054a14.753 14.753 0 0 0-7.023-2.336c-1.518-.082-4.586-.045-5.828 1.38s-.113 3.808.256 4.031Z" fill="#462e1c"/><path data-name="Path 4719" d="M218.255 41.04a4.624 4.624 0 0 0-.873-2.989c-.812-1.059-1.174-1.349-2.371-1.246s-1.346.631-1.979 1.388a2.741 2.741 0 0 0-.656 1.546 1.838 1.838 0 0 1 2.395-.246c1.305.92 3.361 1.842 3.484 1.547Z" fill="#462e1c"/><path data-name="Path 4720" d="M223.645 63.23c-.922 0-2.207-.974-3.871-1.024s-2.262.581-2.139.932 1.027.052 2 .092 4.941 0 4.01 0Z" fill="#1a1a1a"/><path data-name="Path 4722" d="M218.084 70.942c-1.654-.6-1.674-1.686-1.578-2.193s1.076.047 2.256 0a21.373 21.373 0 0 1 3.74-.124c1.809.148 4.275.249 7.447.767a21.724 21.724 0 0 1 5.131 1.41 3.994 3.994 0 0 1 1.973 1.713s-1.453-1.594-5.781-1.838a37.88 37.88 0 0 0-8.15.477s-3.385.388-5.038-.212Z" fill="#b1b1b1"/><path data-name="Path 4721" d="M237.067 72.591s-2.916 4.063-6.035 5.034-4.836 2.055-6.475 2.116a54.256 54.256 0 0 1-6.055-.37c-.885-.119-.754-.811-.555-1.794a12.231 12.231 0 0 1 .873-2.333 1.793 1.793 0 0 0 .7 1.026 4.782 4.782 0 0 0 2.43.331c1.549 0 1.678-.219 3.9-.331a22.83 22.83 0 0 0 5.645-.528 12.023 12.023 0 0 0 5.572-3.151Z" fill="#b1b1b1"/><path data-name="Path 4723" d="M235.352 72.296c.684 0 .918 1.019.918 1.019s-.3.263-.727.559a6.369 6.369 0 0 1-1.184.745 1.458 1.458 0 0 1-.777-.594 2.131 2.131 0 0 1-1.609 1.089c-1.023.02-1.66-1.206-1.66-1.206s-.238 1.111-.832 1.321a3.472 3.472 0 0 1-2.086.209 1.252 1.252 0 0 1-.809-.949s-.172.7-.559.86a9.293 9.293 0 0 1-2.215.175.476.476 0 0 1-.473-.3.654.654 0 0 1-.578.357 11.546 11.546 0 0 1-2.066.1c-.758-.074-.648-.458-.648-.458a.86.86 0 0 1-.5.357 1 1 0 0 1-.832-.061c-.273-.164-.223-.657-.223-.657s-.375.627-.473.071a7.408 7.408 0 0 1 .09-2.3c.152-.535.605.342.605.342s-.109-1.519.422-1.431.992 1.765.992 1.765.246-1.645 1.648-1.652a2.138 2.138 0 0 1 1.867 1.516s.7-1.171 1.629-1.19 1.383 1.326 1.383 1.326.586-1.679 1.867-1.765 1.859 1.517 1.859 1.517 1.039-1.044 1.84-.967 1.359 1.275 1.359 1.275 1.085-1.073 1.772-1.073Z" fill="#f8f8f8"/><path data-name="Path 4726" d="M275.875 62.244c-.584-1.046-.639-2.361-.941-1.96s.33 1.828 0 3.047-1.574 1.025-1.3 1.829 1.076-1.2 2.043-1.279 1.6 1.294 1.592.587-.813-1.176-1.394-2.224Z" fill="#1a1a1a"/><path data-name="Path 4727" d="M222.145 18.942a11.44 11.44 0 0 1 1.941-5.895c1.979-2.947 1.525-2.01 5.969-5.892C236.334 1.673 250.088.092 252.41.018a55.013 55.013 0 0 1 28.5 7.664c12.059 7.04 18.709 18.118 19.221 18.833s4.8 1.793 7.441 8.13 3.24 8.8 3.008 19.735-2.57 11.655-3.934 24.016 5.33 24.609 5.33 24.609a32.348 32.348 0 0 0-6.437-1.246c-5.084-.434-11.809-.558-15.771-3.2-6.68-4.451-14.883-4.77-15.4-7.923a31.594 31.594 0 0 1 2.473-18.031c1.135-1.169 2.885-2.272 3.453-2.922a22.163 22.163 0 0 0 3.771-7.2 26.425 26.425 0 0 0 .848-8.867c-.287-2.054-1.887-3.53-3.227-3.551a8.463 8.463 0 0 0-4.311.8c-1.254.747-6.354 7.194-6.309 8.106s-4.881-2.555-5.418-3.837 1.479-9.2-1.18-15.911-5.754-6.2-7-8.124-2.973-6.695-6.061-10.853-5.543-6.227-8.445-7.2a23.442 23.442 0 0 0-10.549-.568 20.12 20.12 0 0 0-5.725 2.554 22.173 22.173 0 0 0-4.543 3.91Z" fill="#484848"/><path data-name="Exclusion 9" d="M209.444 60.896a8.108 8.108 0 0 0 1.705-.19 6.527 6.527 0 0 0 .7-.19 2.816 2.816 0 0 1-.17-.5 3.338 3.338 0 0 1-.069-.55s-.337.114-.82.227a7.912 7.912 0 0 1-1.711.233 3.818 3.818 0 0 1-.5-.031 4.887 4.887 0 0 1-.865-.183 2.914 2.914 0 0 1-.731-.35 3.743 3.743 0 0 1-.685-.6 8.488 8.488 0 0 1-.725-.936 11.346 11.346 0 0 1-2.062-4.677 21.231 21.231 0 0 1-.543-6.163s.007 0 .02 0c.521 0 11.174 1.6 11.282 1.613a4.984 4.984 0 0 0 .181-.84c.041-.395.066-.739.066-.742l-10.714-1.759s-.166-.389-.075-.515a3.105 3.105 0 0 1 1.034-.939c.108-.057.224-.127.347-.2a7.042 7.042 0 0 1 1.179-.597 5.041 5.041 0 0 1 1.786-.31 6.588 6.588 0 0 1 .769.047l.217.026h.018a17.825 17.825 0 0 1 2.815.473 5.849 5.849 0 0 1 1.187.478 5.158 5.158 0 0 1 1.082.786 10.4 10.4 0 0 1 .852.87 2.967 2.967 0 0 1 .48.757 3.36 3.36 0 0 1 .227.9c.047.359.071.783.092 1.309a15.574 15.574 0 0 1-.047 1.748c-.041.539-.1 1.134-.187 1.768-.142 1.079-.3 1.909-.3 1.918.006-.01.648-1.134 1.225-1.949a11.367 11.367 0 0 1 1.1-1.342 9.409 9.409 0 0 1-.049-1.2 5.325 5.325 0 0 1 .1-.977 1.7 1.7 0 0 1 .336-.769.656.656 0 0 1 .507-.233h.047a1.3 1.3 0 0 1 .442.1 1.431 1.431 0 0 1 .371.239 2.515 2.515 0 0 1 .56.77 9.232 9.232 0 0 1 .623 1.932l.031.129a23.283 23.283 0 0 0 .683 2.351c.18.507.377.988.586 1.43a11.371 11.371 0 0 0 .791 1.418c.323.488.6.887.883 1.25a6.855 6.855 0 0 0 .983 1.04 5.986 5.986 0 0 0 1.278.821 9.5 9.5 0 0 0 1.786.63 17.054 17.054 0 0 0 2.073.4 14.845 14.845 0 0 0 1.853.116 15.184 15.184 0 0 0 2.968-.3 11.837 11.837 0 0 0 2.467-.7 6.251 6.251 0 0 0 1.455-.882 6.326 6.326 0 0 0 .676-.641 7.4 7.4 0 0 0 .637-.809 12.112 12.112 0 0 0 1.512-2.739 16.856 16.856 0 0 0 .718-3.372 32.325 32.325 0 0 0 .259-4.736 6.878 6.878 0 0 1 .058-1.37c.058-.173.254-.257.6-.257a7.96 7.96 0 0 1 1.281.171c.16.029.325.06.483.086.366.061 1.634.212 3.388.42 3.012.358 7.563.9 11.5 1.457 1.564.222 2.726.378 3.659.5a48.916 48.916 0 0 1 6.339 1.146 25.773 25.773 0 0 1 4.659 1.476 13.725 13.725 0 0 0 1.322.5 24.958 24.958 0 0 0 2.6.657c.006 0 .607-.19 1.012-.271s1.174-.173 1.207-.182l-.009-.005c-.2-.112-.932-.515-1.8-.967a33.056 33.056 0 0 0-3.007-1.426 18.033 18.033 0 0 0-1.288-.437 27.685 27.685 0 0 0-1.841-.47c-1.593-.359-3.93-.8-7.579-1.423a745.72 745.72 0 0 0-12.282-1.968c-3.857-.588-6.8-1.014-7.137-1.043a8.9 8.9 0 0 1-1.314-.267c-.366-.092-.745-.188-1.149-.264s-.924-.206-1.528-.358a61.308 61.308 0 0 0-3.036-.7 39.902 39.902 0 0 0-2.585-.439 20.661 20.661 0 0 0-2.687-.174c-.284 0-.576.006-.87.017l-.717.025a24.038 24.038 0 0 0-2.732.193 14.874 14.874 0 0 0-3.073.813 22.644 22.644 0 0 0-5.166 2.811l-.2.135a3.1 3.1 0 0 1-.913.415 3.727 3.727 0 0 1-.993.14 2.851 2.851 0 0 1-.42-.03 1.3 1.3 0 0 1-.773-.434 2.485 2.485 0 0 0-.811-.559 17.528 17.528 0 0 1-.467-.206 13.285 13.285 0 0 0-2.287-.787c-.514-.145-.907-.27-1.253-.38-.445-.142-.8-.254-1.188-.338a8.772 8.772 0 0 0-1.427-.171c-.3-.015-.579-.023-.849-.023a11.811 11.811 0 0 0-1.911.148 13.8 13.8 0 0 0-2.027.5 10.742 10.742 0 0 0-1.826.76 11.073 11.073 0 0 0-1.131.721l-.248.172c-.735.5-1.171.981-1.2 1.316a1.989 1.989 0 0 0 .032.58.534.534 0 0 0 .3.414.42.42 0 0 1 .3.3 10.371 10.371 0 0 1 .273 1.248v.014l.093.485c.149.777.229 1.469.306 2.137a22.216 22.216 0 0 0 .518 3.088c.262 1.045.4 1.59.569 2.067a13.934 13.934 0 0 0 .688 1.569 9.081 9.081 0 0 0 .956 1.676 3.785 3.785 0 0 0 .607.615 5.236 5.236 0 0 0 .857.549 6.04 6.04 0 0 0 1.625.643 8.524 8.524 0 0 0 1.656.127Zm22.889-19.681a18.748 18.748 0 0 1 3.637.3 8.934 8.934 0 0 1 1.513.433 5.783 5.783 0 0 1 1.264.677 4.362 4.362 0 0 1 .89.823 2.811 2.811 0 0 1 .466.855 6.917 6.917 0 0 1 .232 2.064c.006.276.012.562.026.872a18.585 18.585 0 0 1-.186 3.444c-.088.6-.2 1.194-.343 1.761a15.462 15.462 0 0 1-.512 1.677 7.454 7.454 0 0 1-.776 1.517 7.725 7.725 0 0 1-1.056 1.277 6.591 6.591 0 0 1-1.232.95 4.563 4.563 0 0 1-1.297.531 18.237 18.237 0 0 1-4.09.56 10.285 10.285 0 0 1-1.417-.095 8.366 8.366 0 0 1-1.427-.325 5.647 5.647 0 0 1-1.381-.647 4.4 4.4 0 0 1-.947-.839 9.055 9.055 0 0 1-1.209-2.087 21.96 21.96 0 0 0-.327-.686c-.107-.216-.215-.43-.32-.637a12.656 12.656 0 0 1-1.673-5.23 10.564 10.564 0 0 1 0-1.7 5.625 5.625 0 0 1 .252-1.281 3.241 3.241 0 0 1 .463-.912 2.411 2.411 0 0 1 .633-.593l.034-.022a15.321 15.321 0 0 1 7.231-2.655 39.155 39.155 0 0 1 1.552-.032Z" fill="#56b9fe"/><ellipse data-name="Ellipse 1614" cx="1.299" cy="1.688" rx="1.299" ry="1.688" transform="translate(195.833 91.816)" fill="#504e4e"/><path data-name="Path 4733" d="M204.31 67.905a6.68 6.68 0 0 0 3.2-.679 5.172 5.172 0 0 0 2.193-2.453 4.982 4.982 0 0 0 .143-1.661Z" fill="#dedede"/><path data-name="Path 4734" d="M197.43 73.32a11.54 11.54 0 0 0 2.525-.575 4.546 4.546 0 0 0 2.143-1.946 2.109 2.109 0 0 0 .279-1.657Z" fill="#dedede"/><g data-name="Group 2157" fill="#f0f0f0"><path data-name="Path 4735" d="M209.878 57.822a8.469 8.469 0 0 1 .8-1.2 7.87 7.87 0 0 1 .959-.982l-.316.727Z"/><path data-name="Path 4736" d="M204.342 63.224a.249.249 0 0 0 .1.391 1.063 1.063 0 0 0 .871-.106 6.889 6.889 0 0 1 1.852-.312c.84-.066 1.127.1 1.32.027s.213-.521.5-.791a1.094 1.094 0 0 1 .641-.289v-.245a13.611 13.611 0 0 0-3.387.293 3.985 3.985 0 0 0-1.897 1.032Z"/><path data-name="Path 4737" d="M197.771 69.209c-.27.189.223.316.75.344a13.489 13.489 0 0 0 1.82-.089 16.273 16.273 0 0 1 1.91.089 1.447 1.447 0 0 0 1.172-.723c.133-.273-.437-.352-1.047-.444a6.9 6.9 0 0 0-2.684 0 5.034 5.034 0 0 0-1.921.823Z"/></g><path data-name="Path 4740" d="M233.166 198.496s-.66-2.193-1.52-4.8-1-3.321-1.881-6.3-1.334-4.514-2.166-5.62a2.683 2.683 0 0 0-2.471-1.108c-.488.075-1.275.791-1.979.353s-1.832-2.29-3.779-2.383-3.4 1.856-3.4 1.856a5.136 5.136 0 0 0-2.926 0c-1.576.474-2.748 1.677-3.3 1.836a9.445 9.445 0 0 0-3.107.626c-1.146.633-4.127 3.8-4.369 4.984a19.475 19.475 0 0 0 .781 9.212 9.715 9.715 0 0 0 3.873 5.412 13.847 13.847 0 0 0 2.09 1.455 21.442 21.442 0 0 0 3.043 5.309 34.738 34.738 0 0 0 8.74 7.09 16.593 16.593 0 0 0 7.328 2.471 26.943 26.943 0 0 1 .115-7.5c.629-4.464 1.285-8.284 2.461-10.394a4.989 4.989 0 0 1 2.467-2.499Z" fill="#dedede"/><path data-name="Path 4768" d="M203.193 139.486a38.168 38.168 0 0 0-13.238-3.057 76.725 76.725 0 0 0-13.252 0l2.342 4 25.072 1.1Z" fill="#272827"/><ellipse data-name="Ellipse 1633" cx="1.949" cy="2.013" rx="1.949" ry="2.013" transform="translate(270.917 67.532)" fill="url(#c)"/><ellipse data-name="Ellipse 1634" cx="3.248" cy="3.376" rx="3.248" ry="3.376" transform="translate(248.574 133.24)" opacity=".684" fill="url(#d)"/><ellipse data-name="Ellipse 1635" cx="3.183" cy="3.376" rx="3.183" ry="3.376" transform="translate(246.625 157.134)" opacity=".684" fill="url(#d)"/><ellipse data-name="Ellipse 1636" cx="3.248" cy="3.376" rx="3.248" ry="3.376" transform="translate(247.534 181.158)" opacity=".684" fill="url(#d)"/></g></g></g></g></svg>