<svg width="600" height="400" viewBox="0 0 600 400" fill="none" xmlns="http://www.w3.org/2000/svg">
<path d="M237.677 129.52L242.068 143.526L257.477 147.946L237.677 129.52Z" fill="#8C00CD"/>
<path d="M253.822 129.845L257.479 147.946L261.419 140.472L253.822 129.845Z" fill="#8C00CD"/>
<path d="M422.303 234.398C421.659 231.821 420.631 229.356 419.254 227.085C418.123 225.032 416.8 223.092 415.303 221.289C414.868 220.706 414.225 220.313 413.508 220.19C412.79 220.067 412.053 220.224 411.448 220.628C409.905 221.455 402.469 226.191 395.971 224.87C389.473 223.549 383.633 214.403 380.988 208.676C378.161 202.93 374.569 197.593 370.309 192.811C370.309 192.811 367.929 195.12 362.09 195.572C358.238 195.765 354.387 195.184 350.765 193.861C346.235 196.533 342.571 200.453 340.211 205.152C336.644 212.682 330.146 230.514 322.061 235.666C317.188 238.771 312.101 241.525 306.838 243.908C306.838 243.908 310.37 242.307 314.279 250.475C318.188 258.643 316.194 261.221 316.194 261.221C323.092 258.932 329.544 255.475 335.271 251C340.308 246.824 344.391 241.617 347.245 235.731C353.15 236.465 359.087 236.895 365.035 237.017C368.7 237.08 372.355 236.622 375.891 235.656C379.009 237.954 386.21 243.118 390.161 244.863C395.3 247.124 401.466 245.789 404.91 244.812C408.353 243.836 419.324 238.913 420.83 238.198C422.336 237.483 422.378 236.399 422.303 234.398Z" fill="#8C00CD"/>
<path d="M253.453 92.6103V103.506C249.314 101.667 246.475 101.501 241.568 103.25V92.6103C243.439 93.4266 245.472 93.8019 247.511 93.7073C249.55 93.8021 251.583 93.4268 253.453 92.6103Z" fill="#8C00CD"/>
<path d="M299.899 305.039C299.586 306.011 299.186 307.227 298.696 308.678C297.272 312.9 293.764 313.713 290.05 315.342C286.337 316.97 280.647 318.648 277.627 322.435H318.624L316.544 305.039H299.899Z" fill="#F7E9FD"/>
<path d="M341.574 305.039H324.93C324.616 306.011 324.216 307.227 323.727 308.678C322.639 311.906 320.331 313.142 317.646 314.271L318.622 322.435H343.654L341.574 305.039Z" fill="#F7E9FD"/>
<path d="M194.963 260.504C194.32 259.702 193.406 259.162 192.393 258.986C191.38 258.81 190.337 259.01 189.461 259.548C188.585 260.086 187.936 260.926 187.635 261.909C187.335 262.892 187.403 263.952 187.829 264.888C189.968 263.07 192.375 261.592 194.963 260.504Z" fill="#F7E9FD"/>
<path d="M247.862 102.046C242.086 102.046 234.617 105.478 233.849 111.477C233.08 117.475 237.68 118.711 237.68 118.711C232.99 118.804 228.307 119.134 223.65 119.699C221.296 119.981 219.101 121.032 217.404 122.687C215.708 124.343 214.604 126.512 214.264 128.858C214.03 131.09 214.377 133.345 215.273 135.403C216.169 137.46 217.582 139.251 219.376 140.6C221.349 137.232 224.398 134.626 228.032 133.2C233.405 131.081 237.669 129.52 237.669 129.52C238.841 129.059 239.887 128.33 240.725 127.391C241.563 126.452 242.169 125.33 242.493 124.114C243.62 121.078 244.777 116.95 244.777 116.95C244.777 116.95 240.816 114.841 242.03 112.701C243.245 110.56 245.499 112.441 245.499 112.441C245.648 110.977 246.34 109.621 247.439 108.642C247.86 108.289 248.357 108.037 248.891 107.907C249.426 107.777 249.983 107.773 250.519 107.894C251.056 108.016 251.556 108.26 251.983 108.607C252.409 108.954 252.749 109.395 252.976 109.896C253.735 112.572 253.988 115.368 253.723 118.136C255.042 117.671 256.184 116.806 256.99 115.663C257.795 114.519 258.225 113.153 258.22 111.754C258.221 106.143 253.638 102.046 247.862 102.046Z" fill="#F7E9FD"/>
<path d="M253.373 120.442C252.707 122.929 249.677 122.814 247.579 120.847C247.156 125.703 250.713 128.205 253.822 129.845C255.504 130.442 257.361 131.188 259.282 132.073C259.879 125.815 256.652 121.236 253.488 119.942C253.454 120.11 253.416 120.277 253.373 120.442Z" fill="#F7E9FD"/>
<path d="M270.122 158.146C269.786 156.309 269.195 154.529 268.369 152.855V158.789C268.951 158.569 269.536 158.354 270.122 158.146Z" fill="#F7E9FD"/>
<path d="M319.352 120.682L316.72 122.847L323.798 134.246L326.428 132.085L319.352 120.682Z" fill="#F7E9FD"/>
<path d="M377.603 206.75C378.019 206.75 378.419 206.585 378.713 206.29C379.008 205.996 379.173 205.597 379.173 205.18C379.173 204.764 379.008 204.364 378.713 204.07C378.419 203.776 378.019 203.61 377.603 203.61C377.187 203.61 376.787 203.776 376.493 204.07C376.198 204.364 376.033 204.764 376.033 205.18C376.033 205.597 376.198 205.996 376.493 206.29C376.787 206.585 377.187 206.75 377.603 206.75Z" fill="#F7E9FD"/>
<path d="M359.267 206.42C359.683 206.42 360.083 206.255 360.377 205.961C360.672 205.666 360.837 205.267 360.837 204.85C360.837 204.434 360.672 204.035 360.377 203.74C360.083 203.446 359.683 203.28 359.267 203.28C358.851 203.28 358.451 203.446 358.157 203.74C357.862 204.035 357.697 204.434 357.697 204.85C357.697 205.267 357.862 205.666 358.157 205.961C358.451 206.255 358.851 206.42 359.267 206.42Z" fill="#F7E9FD"/>
<path d="M338.689 215.694C339.105 215.694 339.505 215.528 339.799 215.234C340.094 214.939 340.259 214.54 340.259 214.124C340.259 213.707 340.094 213.308 339.799 213.013C339.505 212.719 339.105 212.553 338.689 212.553C338.272 212.553 337.873 212.719 337.579 213.013C337.284 213.308 337.119 213.707 337.119 214.124C337.119 214.54 337.284 214.939 337.579 215.234C337.873 215.528 338.272 215.694 338.689 215.694Z" fill="#F7E9FD"/>
<path d="M326.154 235.942C326.57 235.942 326.97 235.777 327.264 235.482C327.558 235.188 327.724 234.789 327.724 234.372C327.724 233.956 327.558 233.556 327.264 233.262C326.97 232.967 326.57 232.802 326.154 232.802C325.737 232.802 325.338 232.967 325.043 233.262C324.749 233.556 324.584 233.956 324.584 234.372C324.584 234.789 324.749 235.188 325.043 235.482C325.338 235.777 325.737 235.942 326.154 235.942Z" fill="#F7E9FD"/>
<path d="M324.837 255.334C325.254 255.334 325.653 255.169 325.948 254.874C326.242 254.58 326.407 254.181 326.407 253.764C326.407 253.348 326.242 252.948 325.948 252.654C325.653 252.359 325.254 252.194 324.837 252.194C324.421 252.194 324.022 252.359 323.727 252.654C323.433 252.948 323.267 253.348 323.267 253.764C323.267 254.181 323.433 254.58 323.727 254.874C324.022 255.169 324.421 255.334 324.837 255.334Z" fill="#F7E9FD"/>
<path d="M344.158 234.492C344.574 234.492 344.973 234.326 345.268 234.032C345.562 233.737 345.728 233.338 345.728 232.921C345.728 232.505 345.562 232.106 345.268 231.811C344.973 231.517 344.574 231.351 344.158 231.351C343.741 231.351 343.342 231.517 343.047 231.811C342.753 232.106 342.588 232.505 342.588 232.921C342.588 233.338 342.753 233.737 343.047 234.032C343.342 234.326 343.741 234.492 344.158 234.492Z" fill="#F7E9FD"/>
<path d="M360.447 226.492C360.863 226.492 361.262 226.326 361.557 226.032C361.851 225.737 362.017 225.338 362.017 224.922C362.017 224.505 361.851 224.106 361.557 223.811C361.262 223.517 360.863 223.352 360.447 223.352C360.03 223.352 359.631 223.517 359.336 223.811C359.042 224.106 358.877 224.505 358.877 224.922C358.877 225.338 359.042 225.737 359.336 226.032C359.631 226.326 360.03 226.492 360.447 226.492Z" fill="#F7E9FD"/>
<path d="M373.306 233.42C373.722 233.42 374.122 233.254 374.416 232.96C374.711 232.665 374.876 232.266 374.876 231.85C374.876 231.433 374.711 231.034 374.416 230.739C374.122 230.445 373.722 230.28 373.306 230.28C372.89 230.28 372.49 230.445 372.196 230.739C371.901 231.034 371.736 231.433 371.736 231.85C371.736 232.266 371.901 232.665 372.196 232.96C372.49 233.254 372.89 233.42 373.306 233.42Z" fill="#F7E9FD"/>
<path d="M370.978 216.923C371.394 216.923 371.794 216.758 372.088 216.464C372.383 216.169 372.548 215.77 372.548 215.353C372.548 214.937 372.383 214.537 372.088 214.243C371.794 213.949 371.394 213.783 370.978 213.783C370.562 213.783 370.162 213.949 369.868 214.243C369.573 214.537 369.408 214.937 369.408 215.353C369.408 215.77 369.573 216.169 369.868 216.464C370.162 216.758 370.562 216.923 370.978 216.923Z" fill="#F7E9FD"/>
<path d="M386.548 227.496C386.965 227.496 387.364 227.331 387.658 227.037C387.953 226.742 388.118 226.343 388.118 225.926C388.118 225.51 387.953 225.111 387.658 224.816C387.364 224.522 386.965 224.356 386.548 224.356C386.132 224.356 385.732 224.522 385.438 224.816C385.144 225.111 384.978 225.51 384.978 225.926C384.978 226.343 385.144 226.742 385.438 227.037C385.732 227.331 386.132 227.496 386.548 227.496Z" fill="#F7E9FD"/>
<path d="M394.263 243.996C394.68 243.996 395.079 243.83 395.373 243.536C395.668 243.242 395.833 242.842 395.833 242.426C395.833 242.009 395.668 241.61 395.373 241.316C395.079 241.021 394.68 240.856 394.263 240.856C393.847 240.856 393.447 241.021 393.153 241.316C392.858 241.61 392.693 242.009 392.693 242.426C392.693 242.842 392.858 243.242 393.153 243.536C393.447 243.83 393.847 243.996 394.263 243.996Z" fill="#F7E9FD"/>
<path d="M409.263 228.496C409.68 228.496 410.079 228.331 410.373 228.036C410.668 227.742 410.833 227.342 410.833 226.926C410.833 226.509 410.668 226.11 410.373 225.816C410.079 225.521 409.68 225.356 409.263 225.356C408.847 225.356 408.447 225.521 408.153 225.816C407.858 226.11 407.693 226.509 407.693 226.926C407.693 227.342 407.858 227.742 408.153 228.036C408.447 228.331 408.847 228.496 409.263 228.496Z" fill="#F7E9FD"/>
<path d="M353.154 212.553C351.963 220.456 349.985 228.22 347.252 235.73C347.252 235.73 348.722 235.917 350.962 236.148L353.154 212.553Z" fill="#F7E9FD"/>
<path d="M309.812 244.517C309.405 244.182 308.922 243.951 308.406 243.844C307.89 243.738 307.356 243.758 306.849 243.905C306.26 244.214 306.239 245.491 306.428 246.497L309.812 244.517Z" fill="#F7E9FD"/>
<path d="M316.294 255.849L311.838 258.077C312.648 259.773 314.129 261.941 316.197 261.221C316.197 261.221 317.273 259.831 316.294 255.849Z" fill="#F7E9FD"/>
<path d="M394.866 283.089H326.509C326.51 279.852 327.797 276.747 330.086 274.458C332.375 272.169 335.479 270.883 338.717 270.883H382.66C384.263 270.883 385.85 271.198 387.331 271.812C388.812 272.425 390.158 273.324 391.291 274.458C392.425 275.591 393.324 276.937 393.937 278.418C394.551 279.899 394.866 281.486 394.866 283.089Z" fill="#F7E9FD"/>
<path d="M318.62 269.22C315.647 267.728 313.408 266.292 313.408 266.292C313.505 269.604 317.263 271.814 318.696 272.547L318.62 269.22Z" fill="#F7E9FD"/>
<path d="M372.33 270.883C373.068 268.588 373.12 266.127 372.48 263.803C372.246 266.299 371.472 268.715 370.213 270.883H372.33Z" fill="#F7E9FD"/>
<path d="M356.369 180.43C356.814 180.694 357.332 180.809 357.846 180.758C358.361 180.707 358.846 180.492 359.23 180.145C359.678 178.975 360.012 178.048 360.012 178.048C359.268 178.854 358.271 179.38 357.187 179.541C356.841 179.553 356.497 179.496 356.174 179.373C355.851 179.25 355.556 179.063 355.306 178.824C355.364 179.15 355.489 179.461 355.672 179.737C355.854 180.013 356.092 180.249 356.369 180.43Z" fill="#F7E9FD"/>
<path d="M357.269 169.078L359.78 173.784C360.344 173.038 361.068 172.426 361.898 171.993C363.199 171.356 363.838 172.504 363.072 173.729C362.5 174.592 361.841 175.396 361.107 176.127C361.107 176.127 366.348 185.127 368.235 187.137C372.421 194.152 382.39 200.891 386.724 201.928C391.058 202.965 393.134 200.394 392.864 196.737C392.749 195.626 392.39 194.555 391.813 193.598C391.237 192.642 390.457 191.824 389.528 191.203C389.528 191.203 391.213 192.569 398.839 192.087C406.464 191.605 408.513 185.157 404.949 178.215C401.385 171.274 389.713 167.114 381.318 169.757C383.433 165.593 383.566 160.966 377.885 156.405C372.205 151.844 366.393 152.097 361.02 154.741C355.647 157.386 355.064 164.692 357.269 169.078Z" fill="#F7E9FD"/>
<path d="M319.352 120.682L316.72 122.845L323.798 134.246L326.428 132.085L319.352 120.682Z" fill="#F7E9FD"/>
<path d="M299.899 305.039C299.586 306.011 299.186 307.227 298.696 308.678C297.272 312.9 293.764 313.714 290.05 315.342C286.337 316.97 280.647 318.648 277.627 322.436H318.624L316.544 305.039H299.899Z" stroke="#240038" stroke-width="1.5" stroke-linecap="round" stroke-linejoin="round"/>
<path d="M341.57 305.039H324.926C324.612 306.011 324.212 307.227 323.723 308.678C322.635 311.906 320.327 313.142 317.642 314.272L318.618 322.436H343.651L341.57 305.039Z" stroke="#240038" stroke-width="1.5" stroke-linecap="round" stroke-linejoin="round"/>
<path d="M286.58 173.107L287.944 175.407L293.529 170.777" stroke="#240038" stroke-width="1.5" stroke-linecap="round" stroke-linejoin="round"/>
<path d="M323.254 146.14L329.44 141.012L313.973 114.944L272.474 149.34L276.343 155.858" stroke="#240038" stroke-width="1.5" stroke-linecap="round" stroke-linejoin="round"/>
<path d="M297.713 167.311L306.841 159.744" stroke="#240038" stroke-width="1.5" stroke-linecap="round" stroke-linejoin="round"/>
<path d="M278.291 159.146L280.491 162.855" stroke="#240038" stroke-width="1.5" stroke-linecap="round" stroke-linejoin="round"/>
<path d="M321.287 145.628L328.591 139.573L314.897 116.494L278.076 147.016L286.237 160.771" stroke="#240038" stroke-width="1.5" stroke-linecap="round" stroke-linejoin="round"/>
<path d="M295.302 167.163L305.389 158.802" stroke="#240038" stroke-width="1.5" stroke-linecap="round" stroke-linejoin="round"/>
<path d="M367.588 152.867V108.129C367.588 100.735 364.65 93.6447 359.422 88.4165C354.194 83.1884 347.103 80.2511 339.71 80.2507H199.395C195.734 80.2495 192.107 80.9698 188.724 82.3703C185.341 83.7708 182.267 85.8241 179.677 88.413C177.087 91.0019 175.033 94.0756 173.632 97.4585C172.23 100.841 171.509 104.467 171.509 108.129V223.84H331.482" stroke="#240038" stroke-width="1.5" stroke-linecap="round" stroke-linejoin="round"/>
<path d="M294.283 223.84V237.774C294.284 238.993 293.923 240.186 293.245 241.2C292.568 242.214 291.605 243.004 290.477 243.47C289.729 243.78 288.926 243.939 288.116 243.939H238.423C240.059 243.938 241.626 243.288 242.783 242.132C243.939 240.976 244.589 239.409 244.59 237.774V223.84H294.283Z" stroke="#240038" stroke-width="1.5" stroke-linecap="round" stroke-linejoin="round"/>
<path d="M238.426 243.939H213.168C212.507 243.952 211.864 244.159 211.319 244.533C210.774 244.908 210.35 245.433 210.1 246.046C209.85 246.658 209.785 247.33 209.913 247.979C210.041 248.628 210.356 249.225 210.819 249.697C211.438 250.33 212.282 250.694 213.168 250.714H246.511C246.954 250.713 247.394 250.8 247.804 250.97C248.214 251.14 248.587 251.389 248.901 251.702C249.215 252.016 249.464 252.389 249.633 252.799C249.803 253.209 249.89 253.649 249.89 254.093C249.889 254.989 249.533 255.848 248.899 256.481C248.266 257.115 247.407 257.471 246.511 257.472H239.645C239.202 257.463 238.761 257.543 238.349 257.706C237.937 257.869 237.561 258.113 237.244 258.422C236.846 258.81 236.552 259.292 236.389 259.823C236.225 260.354 236.197 260.917 236.306 261.461C236.416 262.006 236.661 262.514 237.017 262.94C237.374 263.366 237.831 263.696 238.348 263.9C238.762 264.063 239.202 264.142 239.645 264.133H251.518C252.192 264.134 252.85 264.335 253.409 264.71C253.969 265.085 254.405 265.617 254.663 266.239C254.921 266.861 254.988 267.546 254.858 268.207C254.727 268.867 254.404 269.475 253.928 269.952C253.289 270.591 252.422 270.95 251.518 270.95H245.308" stroke="#240038" stroke-width="1.5" stroke-linecap="round" stroke-linejoin="round"/>
<path d="M232.085 271.073C232.085 271.073 225.378 258.13 207.325 258.13C189.271 258.13 182.564 271.073 182.564 271.073H232.085Z" stroke="#240038" stroke-width="1.5" stroke-linecap="round" stroke-linejoin="round"/>
<path d="M194.959 260.505C194.316 259.702 193.402 259.162 192.389 258.986C191.376 258.81 190.333 259.01 189.457 259.548C188.581 260.086 187.932 260.926 187.631 261.909C187.331 262.893 187.399 263.952 187.825 264.888C189.965 263.071 192.371 261.592 194.959 260.505Z" stroke="#240038" stroke-width="1.5" stroke-linecap="round" stroke-linejoin="round"/>
<path d="M171.509 202.373H341.769" stroke="#240038" stroke-width="1.5" stroke-linecap="round" stroke-linejoin="round"/>
<path d="M257.474 179.396V202.373" stroke="#240038" stroke-width="1.5" stroke-linecap="round" stroke-linejoin="round"/>
<path d="M257.474 147.946V159.091" stroke="#240038" stroke-width="1.5" stroke-linecap="round" stroke-linejoin="round"/>
<path d="M216.056 202.37V154.289C216.056 143.28 220.779 136.067 228.043 133.2C233.416 131.081 237.68 129.52 237.68 129.52" stroke="#240038" stroke-width="1.5" stroke-linecap="round" stroke-linejoin="round"/>
<path d="M237.673 129.52L242.064 143.525L257.473 147.946L237.673 129.52Z" stroke="#240038" stroke-width="1.5" stroke-linecap="round" stroke-linejoin="round"/>
<path d="M253.818 129.845L257.475 147.946L261.415 140.472L253.818 129.845Z" stroke="#240038" stroke-width="1.5" stroke-linecap="round" stroke-linejoin="round"/>
<path d="M277.481 144.909C277.481 144.909 275.017 142.549 270.616 138.985C265.549 135.051 259.877 131.967 253.822 129.852" stroke="#240038" stroke-width="1.5" stroke-linecap="round" stroke-linejoin="round"/>
<path d="M253.818 129.845C250.709 128.203 247.152 125.703 247.575 120.846C249.673 122.812 252.703 122.936 253.369 120.442C254.054 116.942 253.921 113.33 252.981 109.89C252.753 109.389 252.413 108.948 251.987 108.6C251.561 108.253 251.06 108.009 250.524 107.887C249.987 107.766 249.43 107.77 248.896 107.9C248.361 108.029 247.864 108.281 247.443 108.635C246.343 109.614 245.651 110.97 245.503 112.435C245.503 112.435 243.249 110.556 242.035 112.694C240.821 114.833 244.781 116.944 244.781 116.944C244.781 116.944 243.624 121.078 242.497 124.108C242.173 125.324 241.567 126.446 240.729 127.385C239.892 128.324 238.845 129.053 237.673 129.513L257.474 147.946L253.818 129.845Z" stroke="#240038" stroke-width="1.5" stroke-linecap="round" stroke-linejoin="round"/>
<path d="M247.858 102.046C242.082 102.046 234.613 105.478 233.845 111.477C233.076 117.475 237.676 118.711 237.676 118.711C232.986 118.804 228.303 119.134 223.646 119.699C221.293 119.981 219.097 121.032 217.4 122.687C215.704 124.343 214.6 126.512 214.26 128.858C214.026 131.09 214.373 133.345 215.269 135.403C216.165 137.46 217.579 139.251 219.372 140.6C221.345 137.232 224.394 134.626 228.028 133.2C233.401 131.081 237.665 129.52 237.665 129.52C238.837 129.059 239.884 128.33 240.721 127.391C241.559 126.452 242.165 125.33 242.489 124.114C243.616 121.078 244.773 116.95 244.773 116.95C244.773 116.95 240.812 114.841 242.027 112.701C243.241 110.56 245.495 112.441 245.495 112.441C245.644 110.977 246.336 109.621 247.435 108.642C247.856 108.289 248.353 108.037 248.888 107.907C249.422 107.777 249.979 107.773 250.515 107.894C251.052 108.016 251.553 108.26 251.979 108.607C252.405 108.954 252.745 109.395 252.973 109.896C253.731 112.572 253.984 115.368 253.719 118.136C255.038 117.671 256.18 116.806 256.986 115.663C257.791 114.519 258.221 113.153 258.216 111.754C258.217 106.143 253.634 102.046 247.858 102.046Z" stroke="#240038" stroke-width="1.5" stroke-linecap="round" stroke-linejoin="round"/>
<path d="M253.369 120.442C252.703 122.929 249.673 122.814 247.575 120.847C247.153 125.703 250.709 128.205 253.818 129.845C255.5 130.442 257.357 131.188 259.278 132.073C259.875 125.815 256.648 121.236 253.484 119.942C253.45 120.11 253.412 120.277 253.369 120.442Z" stroke="#240038" stroke-width="1.5" stroke-linecap="round" stroke-linejoin="round"/>
<path d="M253.449 103.505V92.6101C251.579 93.4266 249.546 93.8019 247.507 93.7071C245.468 93.8017 243.435 93.4263 241.564 92.6101V103.25" stroke="#240038" stroke-width="1.5" stroke-linecap="round" stroke-linejoin="round"/>
<path d="M247.513 95.701V100.832" stroke="#240038" stroke-width="1.5" stroke-linecap="round" stroke-linejoin="round"/>
<path d="M250.078 98.2667H244.947" stroke="#240038" stroke-width="1.5" stroke-linecap="round" stroke-linejoin="round"/>
<path d="M216.056 174.568C216.056 184.656 223.895 190.09 231.45 187.864C239.005 185.639 267.068 176.181 267.068 176.181L261.8 157.958L234.88 165.007L233.984 145.325" stroke="#240038" stroke-width="1.5" stroke-linecap="round" stroke-linejoin="round"/>
<path d="M232.443 187.565V195.623H250.365V181.762" stroke="#240038" stroke-width="1.5" stroke-linecap="round" stroke-linejoin="round"/>
<path d="M298.116 168.054C298.082 167.764 297.937 167.499 297.712 167.313C297.487 167.128 297.198 167.036 296.907 167.059C293.703 167.298 290.489 167.363 287.279 167.26C283.588 167.129 279.816 166.783 277.615 166.551C276.945 166.48 276.313 166.204 275.806 165.76C275.299 165.317 274.94 164.728 274.78 164.073C274.62 163.419 274.666 162.731 274.911 162.103C275.156 161.476 275.589 160.939 276.151 160.566L281.554 156.984C281.856 156.785 282.074 156.481 282.166 156.131C282.258 155.78 282.218 155.408 282.052 155.086C281.886 154.764 281.607 154.514 281.269 154.385C280.93 154.257 280.556 154.257 280.218 154.387C277.775 155.32 273.039 157.12 271.054 157.82C268.199 158.763 265.43 159.947 262.775 161.357L266.138 172.984C268.202 172.845 270.271 173.193 272.176 173.999C273.717 174.802 275.461 175.13 277.188 174.941C279.998 174.616 282.782 174.093 285.519 173.377C289.56 172.261 293.526 170.892 297.394 169.277C297.632 169.181 297.832 169.009 297.963 168.788C298.093 168.567 298.147 168.309 298.116 168.054Z" stroke="#240038" stroke-width="1.5" stroke-linecap="round" stroke-linejoin="round"/>
<path d="M269.334 173.163V202.373" stroke="#240038" stroke-width="1.5" stroke-linecap="round" stroke-linejoin="round"/>
<path d="M260.541 212.946H278.56" stroke="#240038" stroke-width="1.5" stroke-linecap="round" stroke-linejoin="round"/>
<path d="M270.122 158.146C269.786 156.309 269.195 154.529 268.369 152.855V158.789C268.951 158.568 269.536 158.354 270.122 158.146Z" stroke="#240038" stroke-width="1.5" stroke-linecap="round" stroke-linejoin="round"/>
<path d="M274.72 163.714C278.243 163.529 281.705 162.737 284.959 161.372C286.395 160.716 287.795 159.984 289.153 159.181C289.359 159.061 289.599 159.012 289.836 159.043C290.073 159.073 290.293 159.181 290.462 159.35C290.638 159.527 290.74 159.764 290.749 160.013C290.757 160.262 290.671 160.505 290.507 160.693C289.367 162.012 288.191 163.298 286.98 164.55" stroke="#240038" stroke-width="1.5" stroke-linecap="round" stroke-linejoin="round"/>
<path d="M279.728 166.759C282.943 165.935 286.11 164.939 289.217 163.774C290.821 163.22 292.38 162.543 293.88 161.75C294.156 161.605 294.475 161.566 294.777 161.639C295.08 161.712 295.346 161.893 295.524 162.148C295.703 162.402 295.783 162.714 295.749 163.023C295.715 163.333 295.57 163.619 295.34 163.829C294.32 164.759 292.638 166.252 291.286 167.296" stroke="#240038" stroke-width="1.5" stroke-linecap="round" stroke-linejoin="round"/>
<path d="M319.352 120.682L316.72 122.845L323.798 134.246L326.428 132.085L319.352 120.682Z" stroke="#240038" stroke-width="1.5" stroke-linecap="round" stroke-linejoin="round"/>
<path d="M304.517 134.003L311.01 144.707" stroke="#240038" stroke-width="1.5" stroke-linecap="round" stroke-linejoin="round"/>
<path d="M299.427 138.146L305.921 148.852" stroke="#240038" stroke-width="1.5" stroke-linecap="round" stroke-linejoin="round"/>
<path d="M294.345 142.291L300.838 152.995" stroke="#240038" stroke-width="1.5" stroke-linecap="round" stroke-linejoin="round"/>
<path d="M325.217 145.869L324.902 144.781L323.26 146.14L314.265 143.806C314.029 143.744 313.78 143.745 313.545 143.811C313.31 143.876 313.096 144.004 312.926 144.179C312.757 144.355 312.637 144.573 312.579 144.81C312.522 145.048 312.529 145.296 312.599 145.53C312.693 145.843 312.895 146.112 313.168 146.291L319.287 150.267C319.961 150.705 320.752 150.926 321.555 150.901C322.358 150.876 323.135 150.606 323.78 150.127C324.425 149.649 324.909 148.984 325.166 148.223C325.423 147.462 325.44 146.64 325.217 145.869Z" stroke="#240038" stroke-width="1.5" stroke-linecap="round" stroke-linejoin="round"/>
<path d="M319.276 150.267L317.037 148.815L310.463 147.109C310.146 147.024 309.809 147.055 309.513 147.197C309.217 147.339 308.981 147.582 308.849 147.882C308.716 148.183 308.696 148.52 308.791 148.835C308.886 149.149 309.091 149.419 309.367 149.595L315.487 153.571C316.036 153.928 316.666 154.143 317.319 154.195C317.972 154.247 318.628 154.136 319.227 153.871C319.826 153.606 320.35 153.196 320.751 152.678C321.151 152.159 321.417 151.549 321.522 150.903C320.726 150.923 319.943 150.702 319.276 150.267Z" stroke="#240038" stroke-width="1.5" stroke-linecap="round" stroke-linejoin="round"/>
<path d="M315.49 153.565L313.575 152.319L306.561 150.498C306.243 150.413 305.906 150.444 305.61 150.586C305.314 150.728 305.079 150.971 304.946 151.272C304.814 151.572 304.794 151.91 304.889 152.224C304.984 152.538 305.188 152.808 305.465 152.985L311.584 156.961C312.14 157.323 312.778 157.539 313.44 157.588C314.101 157.638 314.764 157.519 315.367 157.244C315.971 156.969 316.495 156.545 316.891 156.013C317.287 155.482 317.543 154.858 317.633 154.201C316.872 154.201 316.127 153.98 315.49 153.565Z" stroke="#240038" stroke-width="1.5" stroke-linecap="round" stroke-linejoin="round"/>
<path d="M311.578 156.967L309.583 155.67L302.768 153.901C302.452 153.818 302.116 153.851 301.822 153.994C301.527 154.136 301.293 154.378 301.161 154.678C301.03 154.977 301.009 155.313 301.102 155.627C301.196 155.94 301.398 156.21 301.673 156.388L307.792 160.364C308.348 160.725 308.986 160.94 309.648 160.989C310.309 161.038 310.972 160.919 311.575 160.643C312.178 160.368 312.702 159.945 313.098 159.413C313.494 158.881 313.75 158.258 313.841 157.601C313.04 157.626 312.25 157.404 311.578 156.967Z" stroke="#240038" stroke-width="1.5" stroke-linecap="round" stroke-linejoin="round"/>
<path d="M279.314 174.686C281.463 176.837 284.312 178.149 287.344 178.384C293.229 178.741 301.7 171.696 305.981 167.059C308.57 164.253 310.331 162.052 311.318 160.752" stroke="#240038" stroke-width="1.5" stroke-linecap="round" stroke-linejoin="round"/>
<path d="M282.921 118.102C285.365 118.102 287.347 115.027 287.347 111.237C287.347 107.447 285.365 104.374 282.921 104.374C280.476 104.374 278.494 107.447 278.494 111.238C278.494 115.029 280.476 118.102 282.921 118.102Z" stroke="#240038" stroke-width="1.5" stroke-linecap="round" stroke-linejoin="round"/>
<path d="M293.635 113.033C296.08 113.033 298.062 109.959 298.062 106.168C298.062 102.378 296.08 99.3053 293.635 99.3053C291.191 99.3053 289.209 102.378 289.209 106.169C289.209 109.96 291.191 113.033 293.635 113.033Z" stroke="#240038" stroke-width="1.5" stroke-linecap="round" stroke-linejoin="round"/>
<path d="M293.638 106.17L282.923 111.238" stroke="#240038" stroke-width="1.5" stroke-linecap="round" stroke-linejoin="round"/>
<path d="M267.25 114.935C266.567 114.698 266.007 114.199 265.692 113.548C265.377 112.897 265.333 112.148 265.571 111.465C265.808 110.782 266.307 110.222 266.958 109.907C267.609 109.592 268.358 109.548 269.041 109.786L278.663 113.137" stroke="#240038" stroke-width="1.5" stroke-linecap="round" stroke-linejoin="round"/>
<path d="M422.303 234.398C421.658 231.821 420.63 229.356 419.254 227.085C418.123 225.033 416.8 223.092 415.303 221.289C414.867 220.707 414.225 220.314 413.508 220.191C412.791 220.068 412.054 220.224 411.448 220.628C409.905 221.455 402.469 226.191 395.971 224.87C389.473 223.549 383.633 214.403 380.988 208.676C378.161 202.93 374.569 197.593 370.309 192.811C370.309 192.811 367.929 195.12 362.09 195.572C358.238 195.766 354.387 195.184 350.765 193.861C346.235 196.533 342.571 200.453 340.211 205.152C336.644 212.682 330.146 230.514 322.061 235.666C317.188 238.77 312.101 241.525 306.838 243.908C306.838 243.908 310.37 242.307 314.279 250.475C318.188 258.643 316.194 261.221 316.194 261.221C323.091 258.932 329.544 255.475 335.271 251C340.307 246.824 344.39 241.617 347.245 235.731C353.15 236.465 359.087 236.895 365.035 237.017C368.7 237.08 372.355 236.622 375.891 235.656C379.009 237.954 386.21 243.118 390.161 244.863C395.3 247.124 401.466 245.789 404.91 244.812C408.353 243.836 419.324 238.913 420.83 238.198C422.336 237.483 422.378 236.399 422.303 234.398Z" stroke="#240038" stroke-width="1.5" stroke-linecap="round" stroke-linejoin="round"/>
<path d="M440.797 226.476C441.196 225.217 441.666 222.65 439.402 221.458C438.706 221.108 437.957 220.877 437.185 220.773C437.363 220.02 437.25 219.228 436.871 218.554C436.491 217.88 435.872 217.374 435.136 217.135C434.559 217.001 433.968 216.941 433.376 216.958C432.006 215.65 429.529 215.5 426.096 217.122C422.76 218.764 419.642 220.816 416.814 223.231C417.695 224.471 418.51 225.756 419.256 227.081C420.371 229.044 421.304 231.103 422.045 233.235C423.656 233.739 425.342 233.959 427.029 233.886C429.432 233.563 431.17 232.062 433.079 230.474C433.733 229.896 434.509 229.473 435.348 229.235C436.188 228.997 437.07 228.951 437.93 229.101C439.045 229.272 439.367 231.353 439.496 232.662C439.624 233.971 441.299 233.435 441.642 232.234C441.902 231.267 441.962 230.257 441.816 229.267C441.671 228.277 441.324 227.326 440.797 226.476Z" stroke="#240038" stroke-width="1.5" stroke-linecap="round" stroke-linejoin="round"/>
<path d="M425.548 219.417C428.178 218.081 432.095 216.398 435.132 217.137" stroke="#240038" stroke-width="1.5" stroke-linecap="round" stroke-linejoin="round"/>
<path d="M427.861 222.519C430.624 220.85 436.34 219.833 439.402 221.452" stroke="#240038" stroke-width="1.5" stroke-linecap="round" stroke-linejoin="round"/>
<path d="M430.65 226.462C432.346 225.778 436.75 223.974 439.566 225.45C440.49 225.946 441.185 226.781 441.506 227.778" stroke="#240038" stroke-width="1.5" stroke-linecap="round" stroke-linejoin="round"/>
<path d="M375.899 235.653C377.152 235.327 378.356 234.839 379.481 234.2C379.144 226.285 377.836 218.441 375.588 210.844" stroke="#240038" stroke-width="1.5" stroke-linecap="round" stroke-linejoin="round"/>
<path d="M353.154 212.553C351.963 220.456 349.985 228.22 347.252 235.73C347.252 235.73 348.722 235.917 350.962 236.148L353.154 212.553Z" stroke="#240038" stroke-width="1.5" stroke-linecap="round" stroke-linejoin="round"/>
<path d="M314.284 250.472C313.353 248.121 311.807 246.064 309.807 244.517L300.404 250.023C298.655 248.634 296.655 247.594 294.513 246.96C292.248 246.329 289.989 245.673 287.739 244.99C287.425 244.896 287.088 244.916 286.787 245.047C286.486 245.177 286.241 245.409 286.094 245.702C285.948 245.995 285.91 246.331 285.988 246.65C286.065 246.968 286.253 247.249 286.518 247.442L290.578 250.402C290.94 250.667 291.226 251.023 291.407 251.434C291.588 251.844 291.657 252.296 291.607 252.742C291.557 253.188 291.391 253.613 291.124 253.975C290.857 254.336 290.5 254.62 290.088 254.799C286.296 256.491 282.417 257.982 278.467 259.264C278.208 259.337 277.984 259.503 277.841 259.731C277.697 259.96 277.643 260.233 277.69 260.499C277.733 260.751 277.868 260.978 278.068 261.138C278.268 261.297 278.519 261.378 278.775 261.364C282.59 260.926 286.363 260.183 290.06 259.143L279.942 266.136C279.771 266.255 279.65 266.433 279.602 266.636C279.554 266.838 279.583 267.052 279.682 267.235C279.782 267.418 279.946 267.558 280.142 267.628C280.338 267.697 280.554 267.692 280.746 267.613L293.007 262.549L284.066 271.189C283.865 271.384 283.745 271.647 283.73 271.926C283.714 272.206 283.805 272.48 283.984 272.696C284.162 272.911 284.415 273.051 284.693 273.088C284.97 273.124 285.251 273.055 285.479 272.894L295.267 265.955L288.631 274.488C288.543 274.6 288.481 274.73 288.447 274.869C288.413 275.008 288.409 275.152 288.436 275.293C288.462 275.433 288.518 275.566 288.6 275.683C288.682 275.8 288.788 275.898 288.91 275.971C289.071 276.067 289.258 276.107 289.443 276.086C289.628 276.064 289.801 275.981 289.934 275.85C291.833 273.995 298.983 267.019 300.965 265.236C303.552 262.848 306.449 260.821 309.579 259.209L316.295 255.849C315.809 253.993 315.135 252.192 314.284 250.472Z" stroke="#240038" stroke-width="1.5" stroke-linecap="round" stroke-linejoin="round"/>
<path d="M309.808 244.517C309.401 244.182 308.918 243.951 308.402 243.844C307.886 243.738 307.352 243.758 306.845 243.905C306.256 244.214 306.235 245.491 306.424 246.497L309.808 244.517Z" stroke="#240038" stroke-width="1.5" stroke-linecap="round" stroke-linejoin="round"/>
<path d="M316.294 255.849L311.838 258.078C312.648 259.773 314.129 261.942 316.197 261.221C316.197 261.221 317.273 259.831 316.294 255.849Z" stroke="#240038" stroke-width="1.5" stroke-linecap="round" stroke-linejoin="round"/>
<path d="M365.04 237.017C359.092 236.894 353.155 236.465 347.251 235.731C346.633 237.069 345.929 238.365 345.142 239.611V246.112C345.142 246.112 347.317 247.574 359.942 247.574C372.567 247.574 374.994 245.956 374.994 245.956V235.904C371.735 236.686 368.391 237.06 365.04 237.017Z" stroke="#240038" stroke-width="1.5" stroke-linecap="round" stroke-linejoin="round"/>
<path d="M394.866 283.089H326.509C326.51 279.852 327.797 276.747 330.086 274.458C332.375 272.17 335.479 270.884 338.717 270.883H382.66C384.263 270.883 385.85 271.199 387.331 271.812C388.812 272.425 390.158 273.324 391.291 274.458C392.425 275.591 393.324 276.937 393.937 278.418C394.551 279.899 394.866 281.486 394.866 283.089Z" stroke="#240038" stroke-width="1.5" stroke-linecap="round" stroke-linejoin="round"/>
<path d="M326.509 283.089V326.694" stroke="#240038" stroke-width="1.5" stroke-linecap="round" stroke-linejoin="round"/>
<path d="M394.865 283.089V326.694" stroke="#240038" stroke-width="1.5" stroke-linecap="round" stroke-linejoin="round"/>
<path d="M294.681 271.225L295.278 305.039H319.428L318.617 269.219C322.398 271.35 326.471 272.917 330.706 273.871" stroke="#240038" stroke-width="1.5" stroke-linecap="round" stroke-linejoin="round"/>
<path d="M321.08 270.506L321.445 305.039H344.378L343.87 283.186" stroke="#240038" stroke-width="1.5" stroke-linecap="round" stroke-linejoin="round"/>
<path d="M318.62 269.221C315.647 267.728 313.408 266.292 313.408 266.292C313.505 269.604 317.263 271.815 318.696 272.547L318.62 269.221Z" stroke="#240038" stroke-width="1.5" stroke-linecap="round" stroke-linejoin="round"/>
<path d="M374.994 245.951C378.771 251.045 380.612 257.317 380.186 263.645C379.942 266.264 378.985 268.765 377.419 270.879" stroke="#240038" stroke-width="1.5" stroke-linecap="round" stroke-linejoin="round"/>
<path d="M372.326 270.883C373.064 268.588 373.116 266.127 372.476 263.803C372.242 266.299 371.468 268.715 370.209 270.883H372.326Z" stroke="#240038" stroke-width="1.5" stroke-linecap="round" stroke-linejoin="round"/>
<path d="M350.767 193.863C354.39 195.185 358.241 195.766 362.092 195.573C367.931 195.125 370.312 192.813 370.312 192.813L368.24 187.142C366.353 185.132 361.112 176.132 361.112 176.132C361.846 175.4 362.506 174.598 363.077 173.733C363.843 172.508 363.204 171.36 361.903 171.998C361.073 172.43 360.349 173.042 359.785 173.789L357.275 169.083C356.522 170.301 355.936 171.614 355.531 172.987C354.904 175.183 354.651 179.542 356.367 180.429C356.812 180.693 357.33 180.807 357.844 180.756C358.359 180.705 358.844 180.49 359.228 180.144C359.228 180.144 358.054 183.863 356.71 187.055C355.459 189.871 353.388 192.243 350.767 193.863Z" stroke="#240038" stroke-width="1.5" stroke-linecap="round" stroke-linejoin="round"/>
<path d="M356.365 180.43C356.81 180.694 357.328 180.809 357.842 180.758C358.357 180.707 358.842 180.492 359.226 180.145C359.674 178.975 360.008 178.048 360.008 178.048C359.264 178.853 358.267 179.38 357.183 179.541C356.838 179.553 356.493 179.495 356.17 179.372C355.848 179.249 355.552 179.063 355.302 178.824C355.36 179.151 355.483 179.462 355.666 179.738C355.849 180.015 356.087 180.25 356.365 180.43Z" stroke="#240038" stroke-width="1.5" stroke-linecap="round" stroke-linejoin="round"/>
<path d="M357.269 169.078L359.78 173.784C360.344 173.038 361.068 172.426 361.898 171.993C363.199 171.356 363.838 172.504 363.072 173.729C362.5 174.592 361.841 175.396 361.107 176.127C361.107 176.127 366.348 185.127 368.235 187.137C372.421 194.152 382.39 200.891 386.724 201.928C391.058 202.965 393.134 200.394 392.864 196.737C392.749 195.626 392.39 194.555 391.813 193.598C391.237 192.642 390.457 191.824 389.528 191.203C389.528 191.203 391.213 192.569 398.839 192.087C406.464 191.605 408.513 185.157 404.949 178.215C401.385 171.274 389.713 167.114 381.318 169.757C383.433 165.593 383.566 160.966 377.885 156.405C372.205 151.844 366.393 152.097 361.02 154.741C355.647 157.386 355.064 164.692 357.269 169.078Z" stroke="#240038" stroke-width="1.5" stroke-linecap="round" stroke-linejoin="round"/>
<path d="M395.048 73.6047V86.7984" stroke="#240038" stroke-width="1.5" stroke-linecap="round" stroke-linejoin="round"/>
<path d="M401.642 80.2014H388.447" stroke="#240038" stroke-width="1.5" stroke-linecap="round" stroke-linejoin="round"/>
<path d="M383.92 122.973V132.115" stroke="#240038" stroke-width="1.5" stroke-linecap="round" stroke-linejoin="round"/>
<path d="M388.491 127.543H379.349" stroke="#240038" stroke-width="1.5" stroke-linecap="round" stroke-linejoin="round"/>
<path d="M425.685 188.964V202.148" stroke="#240038" stroke-width="1.5" stroke-linecap="round" stroke-linejoin="round"/>
<path d="M432.282 195.557H419.099" stroke="#240038" stroke-width="1.5" stroke-linecap="round" stroke-linejoin="round"/>
<path d="M171.505 246.093V259.873" stroke="#240038" stroke-width="1.5" stroke-linecap="round" stroke-linejoin="round"/>
<path d="M178.395 252.982H164.615" stroke="#240038" stroke-width="1.5" stroke-linecap="round" stroke-linejoin="round"/>
<path d="M162.713 163.946V172.299" stroke="#240038" stroke-width="1.5" stroke-linecap="round" stroke-linejoin="round"/>
<path d="M166.886 168.123H158.533" stroke="#240038" stroke-width="1.5" stroke-linecap="round" stroke-linejoin="round"/>
<path d="M183.72 169.256V179.783" stroke="#240038" stroke-width="1.5" stroke-linecap="round" stroke-linejoin="round"/>
<path d="M188.991 174.518H178.463" stroke="#240038" stroke-width="1.5" stroke-linecap="round" stroke-linejoin="round"/>
<path d="M191.521 146.141V159.559" stroke="#240038" stroke-width="1.5" stroke-linecap="round" stroke-linejoin="round"/>
<path d="M198.23 152.849H184.814" stroke="#240038" stroke-width="1.5" stroke-linecap="round" stroke-linejoin="round"/>
</svg>
